<svg xmlns="http://www.w3.org/2000/svg" viewBox="0 0 120 120"><path fill="#000000" fill-rule="evenodd" d="M 105.97 50.23 L 117.29 50.93 L 117.29 69.07 L 105.97 69.77 L 104.7 74.52 L 114.15 80.79 L 105.07 96.5 L 94.93 91.45 L 91.45 94.93 L 96.5 105.07 L 80.79 114.15 L 74.52 104.7 L 69.77 105.97 L 69.07 117.29 L 50.93 117.29 L 50.23 105.97 L 45.48 104.7 L 39.21 114.15 L 23.5 105.07 L 28.55 94.93 L 25.07 91.45 L 14.93 96.5 L 5.85 80.79 L 15.3 74.52 L 14.03 69.77 L 2.71 69.07 L 2.71 50.93 L 14.03 50.23 L 15.3 45.48 L 5.85 39.21 L 14.93 23.5 L 25.07 28.55 L 28.55 25.07 L 23.5 14.93 L 39.21 5.85 L 45.48 15.3 L 50.23 14.03 L 50.93 2.71 L 69.07 2.71 L 69.77 14.03 L 74.52 15.3 L 80.79 5.85 L 96.5 14.93 L 91.45 25.07 L 94.93 28.55 L 105.07 23.5 L 114.15 39.21 L 104.7 45.48 Z M 98.0 60.0 A 38.0 38.0 0 1 0 22.0 60.0 A 38.0 38.0 0 1 0 98.0 60.0 Z"/></svg>